<svg version="1.0" xmlns="http://www.w3.org/2000/svg"
 width="132.000000pt" height="132.000000pt" viewBox="0 0 132.000000 132.000000"
 preserveAspectRatio="xMidYMid meet">
<g transform="translate(0.000000,132.000000) scale(0.100000,-0.100000)"
fill="#e51b23" stroke="none">
<path d="M568 1309 c-208 -28 -406 -172 -496 -361 -52 -108 -66 -172 -66 -288
0 -116 14 -180 64 -285 67 -139 166 -238 305 -305 104 -50 169 -64 285 -64
116 0 181 14 285 64 139 67 238 166 305 305 50 105 64 169 64 285 0 117 -14
180 -66 290 -55 116 -177 240 -288 293 -129 62 -260 84 -392 66z m231 -362
c95 -44 155 -142 132 -216 -15 -53 -80 -117 -154 -152 -34 -16 -68 -29 -74
-29 -22 0 -14 -21 32 -85 42 -59 79 -97 108 -109 14 -6 -59 -76 -79 -76 -20 0
-81 75 -124 154 -64 117 -67 115 -136 -142 -3 -10 -10 -9 -34 3 -52 27 -55 45
-25 151 15 52 25 103 22 114 -3 12 2 25 12 33 10 6 35 55 56 107 21 52 46 112
57 133 10 20 16 37 14 37 -27 0 -124 -49 -151 -75 l-33 -34 -12 49 c-9 36 -9
54 0 69 18 34 120 78 220 95 44 7 123 -6 169 -27z"/>
<path d="M698 863 c28 -20 28 -27 -3 -66 -24 -32 -85 -166 -85 -186 0 -17 18
-13 74 15 112 56 192 155 166 204 -16 29 -69 50 -127 49 -47 0 -47 -1 -25 -16z"/>
</g>
</svg>
