<svg width="20" height="20" viewBox="0 0 20 20" fill="none" xmlns="http://www.w3.org/2000/svg">
<path id="iconAccent" d="M7.65385 1.53846C11.0538 1.53846 13.8077 4.29231 13.8077 7.69231C13.8077 9.03077 13.3769 10.2692 12.6462 11.2769L13.7462 12.3769C14.7462 11.0769 15.3462 9.45385 15.3462 7.69231C15.3462 3.44615 11.9 0 7.65385 0C3.66154 0 0.384615 3.03846 0 6.92308H1.55385C1.93077 3.88462 4.51538 1.53846 7.65385 1.53846Z" fill="#ABABAB"/>
<path d="M11.6 12.4077C10.5308 13.3077 9.15385 13.8462 7.65385 13.8462C4.51538 13.8462 1.93077 11.5 1.55385 8.46155H0C0.384615 12.3462 3.66154 15.3846 7.65385 15.3846C9.02308 15.3846 10.3 15.0231 11.4077 14.3923L17.0154 20H19.1923L11.6 12.4077Z" fill="#ffffff"/>
</svg>
